<svg xmlns="http://www.w3.org/2000/svg" viewBox="0 0 321 323" class="design-iconfont">
  <defs>
    <linearGradient x1="100%" y1="27.0844449%" x2="0%" y2="0%" id="p53gwtxaja">
      <stop stop-color="#FFF" offset="0%"/>
      <stop stop-color="#E0D3C1" offset="100%"/>
    </linearGradient>
    <linearGradient x1="50%" y1="100%" x2="50%" y2="0%" id="qem5a3aw1b">
      <stop stop-color="#FFF" offset="0%"/>
      <stop stop-color="#E0D3C1" offset="100%"/>
    </linearGradient>
  </defs>
  <g fill="none" fill-rule="evenodd">
    <path fill="url(#p53gwtxaja)" transform="rotate(45 86.010644 140.3258864)" d="M25.1133987 79.049436L146.371614 110.55566 56.6196227 200.307651z"/>
    <path d="M122.356271,124.951423 L283.876872,166.918924 L164.323772,286.472025 L122.356271,124.951423 Z" stroke="#645A4E" stroke-width="2" transform="rotate(45 203.658092 206.6324484)"/>
    <path fill="#645A4E" d="M116.463724 236L177.55664 135.583174 187.988988 151.901705 202.963724 126 214.223685 137.992305 225.417533 129.422638 289.463724 236z" transform="translate(.536276)"/>
    <path fill="url(#qem5a3aw1b)" opacity=".46496001" d="M185.963724 0A22.5 22.5 0 1 0 185.963724 45A22.5 22.5 0 1 0 185.963724 0Z" transform="translate(.536276)"/>
  </g>
</svg>
