<svg xmlns="http://www.w3.org/2000/svg" viewBox="0 0 28 28" class="design-iconfont">
  <path d="M17.6025867,3.98654554 C17.5104965,10.9320696 13.0689955,15.6893961 6.43886173,15.9881451 C3.70467719,16.1133386 1.72385527,15.2301229 4.15698963e-16,14.135 C2.02081215,14.4575332 4.5266018,13.6497665 5.86676083,12.5025437 C3.88593891,12.3098635 2.71316535,11.301608 2.16441341,9.67903398 C2.73679594,9.77798546 3.33979837,9.75174348 3.88358353,9.63658596 C2.09613305,9.03824308 0.819722841,7.93349386 0.75377225,5.61859226 C1.25536541,5.84696154 1.77825939,6.06163379 2.47294237,6.10395379 C1.13524112,5.34306421 0.146084656,2.56159289 1.278996,0.722324081 C3.26434946,2.89843758 5.65249821,4.67421358 9.57389581,4.91443656 C8.58937329,0.705836433 14.1664482,-1.5763715 16.5005769,1.25223299 C17.4872755,1.06134494 18.2904083,0.686993407 19.0629724,0.279538569 C18.7449963,1.25689254 18.1326236,1.93990103 17.3861479,2.48629759 C18.2055891,2.37567162 18.9309176,2.17543886 19.5505613,1.86926529 C19.1661994,2.66768732 18.3257134,3.38367111 17.6025867,3.98654554 Z" transform="translate(4 6)" fill="#645A4E" fill-rule="nonzero"/>
</svg>
