<svg xmlns="http://www.w3.org/2000/svg" viewBox="0 0 28 28" class="design-iconfont">
  <path d="M7.29357857,7.45051887 C8.38184425,7.45051887 9.26308295,8.26671813 9.24476198,9.264295 C9.24476198,10.2627879 8.38367634,11.0780711 7.29357857,11.0780711 C6.22363385,11.0780711 5.34239515,10.2627879 5.34239515,9.264295 C5.34239515,8.26671813 6.2034808,7.45051887 7.29357857,7.45051887 Z M14.2738685,7.45051887 C15.3639663,7.45051887 16.2250519,8.26671813 16.2250519,9.264295 C16.2250519,10.2627879 15.3639663,11.0780711 14.2738685,11.0780711 C13.2039238,11.0780711 12.3236012,10.2627879 12.3236012,9.264295 C12.3236012,8.26671813 13.1846868,7.45051887 14.2747846,7.45051887 L14.2738685,7.45051887 Z M16.0821484,16 C20.2052829,15.867173 21.792795,13.1052866 21.792795,13.1052866 C21.792795,6.97142549 19.1041925,2.00003 19.1041926,2.00003 C16.4201703,-0.055582947 13.8625627,0.000147430925 13.8625627,0.000147430925 L13.6014889,0.305340168 C16.773765,1.29558866 18.2458551,2.72554043 18.2458551,2.72554046 C16.5138432,1.74969339 14.6050053,1.12815336 12.6304774,0.897107539 C11.3777744,0.755735051 10.1124863,0.768040312 8.86276974,0.933749489 C8.75009576,0.933749489 8.65665881,0.952070452 8.54581695,0.970391416 C7.89267434,1.02901853 6.30516219,1.27543558 4.31000844,2.17224712 C3.62022388,2.49469622 3.20891809,2.72554046 3.20891809,2.72554046 C3.20891809,2.72554046 4.75795618,1.21864058 8.11527412,0.229308145 L7.92840021,0.000147430925 C7.92840021,0.000147430925 5.37262475,-0.0555829684 2.68677042,2.00094604 C2.68677042,2.00094604 0,6.97142547 0,13.1043705 C0,13.1043705 1.56644302,15.8653409 5.69049362,15.999084 C5.69049362,15.999084 6.37936212,15.1434946 6.94181592,14.4198162 C4.57108228,13.6943058 3.67701889,12.170001 3.67701889,12.170001 C3.67701889,12.170001 3.8620607,12.3046602 4.19733447,12.4951983 C4.21565543,12.5135192 4.23397642,12.5336723 4.2715344,12.5510772 C4.32832941,12.5913833 4.38420837,12.6097043 4.44100338,12.6472623 C4.90635605,12.9138324 5.37262475,13.1236076 5.80133548,13.2949086 C6.56623602,13.5999528 7.48045247,13.904997 8.54581695,14.1147721 C10.1407792,14.4274613 11.7806856,14.4336789 13.377973,14.1330931 C14.3082325,13.9670172 15.2158174,13.6924666 16.0821484,13.3150617 C16.8378269,13.0224792 17.5578665,12.6450961 18.2284501,12.1901541 C18.2284501,12.1901541 17.2959127,13.7520169 14.8509791,14.4582903 C15.2555491,14.9773036 15.6665815,15.4912468 16.0839805,16 L16.0821484,16 L16.0821484,16 Z" transform="translate(3 6)" fill="#645A4E" fill-rule="nonzero"/>
</svg>
