<?xml version="1.0" encoding="utf-8"?>
<!-- Generator: Adobe Illustrator 26.0.0, SVG Export Plug-In . SVG Version: 6.00 Build 0)  -->
<svg version="1.1" id="图层_1" xmlns="http://www.w3.org/2000/svg" xmlns:xlink="http://www.w3.org/1999/xlink" x="0px" y="0px"
	 viewBox="0 0 250 250" style="enable-background:new 0 0 250 250;" xml:space="preserve">
<style type="text/css">
	.st0{fill:#C7B299;}
	.st1{fill:#FFFFFF;}
	.st2{fill:#9A7D60;}
	.st3{fill:url(#SVGID_1_);}
	.st4{fill:#C5B197;}
</style>
<g>
	<circle class="st0" cx="125" cy="125" r="105"/>
	<g>
		<path class="st1" d="M95.19,85.67c14.85,8.36,29.04,16.35,43.81,24.67c-3.1,1.87-5.27,3.6-7.73,4.5
			c-1.41,0.51-3.54,0.11-4.94-0.64c-7.14-3.8-14.15-7.86-21.6-12.04c0,22.53,0,44.48,0,67.07c19.72-11.18,39.04-22.14,59.28-33.62
			c-5.72-3.16-10.58-6.04-15.64-8.5c-0.95-0.46-2.84,0.5-4.08,1.2c-9.98,5.59-19.9,11.28-29.93,16.99
			c-2.39-8.48-1.47-10.51,5.62-14.42c8.33-4.6,16.54-9.4,24.86-14c1.19-0.66,3.11-1.38,4.04-0.88c11.36,6.16,22.6,12.55,34.97,19.49
			c-29.96,17.01-58.88,33.43-88.65,50.34C95.19,152.32,95.19,119.64,95.19,85.67z"/>
		<path class="st1" d="M86.42,71.03c0,25.13,0,49.29,0,73.45c0,12.62,0.01,25.24,0.02,37.86c0.01,9.24,0.01,9.24-9.43,13.12
			c0-46.8,0-93.43,0-140.92c41.77,23.51,83.04,46.73,124.48,70.05c-7.15,6.34-7.97,6.53-15.48,2.3
			c-28.22-15.87-56.39-31.82-84.6-47.71C96.69,76.53,91.91,74.01,86.42,71.03z"/>
	</g>
</g>
</svg>
