<svg xmlns="http://www.w3.org/2000/svg" viewBox="0 0 280 68" class="design-iconfont">
  <g fill="#645A4E" fill-rule="nonzero">
    <path d="M74.1181485,31.3957618 C74.1181485,23.5709719 79.1495205,18.9863857 85.142891,18.9863857 C87.7806718,19.0126926 90.2937812,20.1129956 92.1022848,22.0333846 L89.5986741,25.0481828 C88.4152954,23.8929798 87.0346869,23.0597845 85.2394933,23.0597845 C81.6491062,23.0597845 78.9563159,26.1349592 78.9563159,31.2347579 C78.9563159,36.3345566 81.395525,39.5063336 85.142891,39.5063336 C87.1554398,39.5063336 88.7654789,38.5443353 90.049485,37.1637268 L92.5490707,40.1141234 C90.6906788,42.3684928 87.9071527,43.6543367 84.9859122,43.6079081 C78.9885166,43.6240085 74.1181485,39.3292293 74.1181485,31.3957618 Z"/>
    <path d="M95.982479,25.221262 L99.8344975,25.221262 L100.156505,28.397064 L100.285308,28.397064 C101.601515,26.0544572 103.505387,24.7744761 105.381082,24.7744761 C106.10735,24.7572812 106.828993,24.8944757 107.498283,25.1769859 L106.677163,29.2302593 C106.077927,29.0300958 105.449297,28.9321274 104.817568,28.9404522 C103.408784,28.9404522 101.706168,29.8702498 100.683793,32.4664378 L100.683793,43.1772227 L95.982479,43.1772227 L95.982479,25.221262 Z"/>
    <path d="M109.494732,50.0359891 L110.360128,46.4134012 C110.765636,46.5433887 111.186553,46.6191808 111.611933,46.6388067 C113.439328,46.6388067 114.461702,45.4836036 114.976915,43.9138156 L115.294898,42.8552149 L108.323428,25.221262 L113.069019,25.221262 L115.934888,33.5572393 C116.478276,35.1672783 116.929087,36.8900201 117.440275,38.6248372 L117.601279,38.6248372 C118.003788,36.9544217 118.466675,35.2236297 118.885285,33.5572393 L121.35267,25.221262 L125.872854,25.221262 L119.493074,43.7367113 C117.923286,47.9670889 115.99929,50.4062981 111.990292,50.4062981 C111.143563,50.4236068 110.29995,50.2984255 109.494732,50.0359891 Z"/>
    <path d="M128.815201,25.221262 L132.663194,25.221262 L132.981177,27.0808571 L133.10998,27.0808571 C134.615366,25.8008761 136.474962,24.7744761 138.398958,24.7744761 C142.826566,24.7744761 145.450929,28.397064 145.450929,33.9114479 C145.450929,40.0658222 141.767965,43.6240085 137.823369,43.6240085 C136.253581,43.6240085 134.74417,42.9196164 133.367586,41.6678111 L133.496389,44.6182076 L133.496389,50.0681899 L128.815201,50.0681899 L128.815201,25.221262 Z M140.608737,33.9758494 C140.608737,30.5424411 139.517935,28.6546703 137.05055,28.6546703 C135.843021,28.6546703 134.740144,29.26246 133.492364,30.5142654 L133.492364,38.3994318 C134.382213,39.229911 135.544096,39.7078285 136.760743,39.7438144 C138.942346,39.7438144 140.608737,37.8842192 140.608737,33.9758494 Z"/>
    <path d="M149.234521,36.8900201 L149.234521,28.9404522 L146.69871,28.9404522 L146.69871,25.4466675 L149.455902,25.221262 L150.003315,20.4152954 L153.943885,20.4152954 L153.943885,25.221262 L158.371493,25.221262 L158.371493,28.9404522 L153.943885,28.9404522 L153.943885,36.8900201 C153.943885,38.9428199 154.777081,39.9048183 156.383095,39.9048183 C156.989365,39.8718268 157.585572,39.7357064 158.146087,39.5023085 L158.914881,42.9316917 C157.69948,43.3632441 156.420961,43.5903852 155.131289,43.6039951 C150.868711,43.6240085 149.234521,40.9312182 149.234521,36.8900201 Z"/>
    <path d="M160.29549,34.2133302 C160.29549,28.2199597 164.429265,24.7583758 168.917249,24.7583758 C173.405233,24.7583758 177.543033,28.2199597 177.543033,34.2133302 C177.543033,40.1463241 173.405233,43.6079081 168.917249,43.6079081 C164.429265,43.6079081 160.29549,40.1624245 160.29549,34.2133302 Z M172.733041,34.2133302 C172.733041,30.8161477 171.352433,28.6063691 168.917249,28.6063691 C166.482065,28.6063691 165.101456,30.8322481 165.101456,34.2133302 C165.101456,37.5944122 166.482065,39.7599148 168.917249,39.7599148 C171.352433,39.7599148 172.733041,37.5984373 172.733041,34.2133302 L172.733041,34.2133302 Z"/>
    <path d="M187.959986,31.3957618 C187.959986,23.5709719 193.027584,18.9863857 199.342962,18.9863857 C202.10624,18.9432991 204.764014,20.0463334 206.68474,22.0333846 L204.152954,25.0481828 C202.953657,23.7585552 201.264903,23.0362657 199.503966,23.0597845 C195.55937,23.0758849 192.814254,26.1631348 192.814254,31.2508583 C192.814254,36.3385817 195.185036,39.522434 199.834024,39.522434 C200.989227,39.522434 202.14443,39.2004262 202.816621,38.6248372 L202.816621,33.9436486 L198.606369,33.9436486 L198.606369,30.0634545 L207.034924,30.0634545 L207.034924,40.7702143 C205.424885,42.3440275 202.643542,43.6240085 199.342962,43.6240085 C192.86658,43.6240085 187.959986,39.3292293 187.959986,31.3957618 Z"/>
    <path d="M210.629336,34.2133302 C210.629336,28.3809637 214.69871,24.7583758 218.993489,24.7583758 C223.932284,24.7583758 226.496271,28.3809637 226.496271,33.3479342 C226.510531,34.0709755 226.434815,34.7929837 226.270865,35.4973363 L215.213922,35.4973363 C215.616432,38.4477329 217.520303,39.9853202 220.180893,39.9853202 C221.615814,39.9685944 223.014677,39.5335481 224.20599,38.7335149 L225.816029,41.6195099 C223.965232,42.8908701 221.778111,43.5830148 219.532852,43.6079635 C214.549781,43.6240085 210.629336,40.1302237 210.629336,34.2133302 Z M222.459098,32.3859358 C222.459098,29.9708772 221.368296,28.4131644 219.05789,28.4131644 C217.166094,28.4131644 215.499704,29.7575471 215.149521,32.3859358 L222.459098,32.3859358 Z"/>
    <path d="M229.253463,34.2133302 C229.253463,28.3809637 233.326862,24.7583758 237.621641,24.7583758 C242.560436,24.7583758 245.124423,28.3809637 245.124423,33.3479342 C245.138683,34.0709755 245.062967,34.7929837 244.899017,35.4973363 L233.838049,35.4973363 C234.240559,38.4477329 236.148455,39.9853202 238.809045,39.9853202 C240.244077,39.9692953 241.643136,39.5341881 242.834142,38.7335149 L244.444181,41.6195099 C242.593384,42.8908701 240.406263,43.5830148 238.161004,43.6079635 C233.165858,43.6240085 229.253463,40.1302237 229.253463,34.2133302 Z M241.083225,32.3859358 C241.083225,29.9708772 239.996448,28.4131644 237.686042,28.4131644 C235.794246,28.4131644 234.127856,29.7575471 233.773647,32.3859358 L241.083225,32.3859358 Z"/>
    <path d="M249.004617 17.5937019L253.593228 17.5937019 253.593228 32.9816503 253.722031 32.9816503 259.940807 25.221262 265.064757 25.221262 258.845981 32.5630401 265.640346 43.1772227 260.544572 43.1772227 256.185391 35.7388422 253.593228 38.6892388 253.593228 43.1772227 249.004617 43.1772227z"/>
    <path d="M8.79081331,15.0216645 L29.9306263,26.9279034 C28.4332899,27.8295253 27.3867645,28.6627205 26.1993607,29.097431 C25.3943469,29.2971936 24.5436313,29.1865431 23.8165029,28.7874985 C20.3669942,26.952054 16.9738369,24.9958565 13.3914999,22.9792826 L13.3914999,55.3410678 L41.9978691,39.1158991 C39.2406772,37.5903871 36.8940452,36.225879 34.4508109,35.0183497 C33.9879247,34.7929442 33.0782526,35.2598556 32.4825382,35.5939387 C27.652421,38.2947792 22.8786551,41.0358707 18.0364626,43.7890375 C16.8852847,39.6995383 17.3199953,38.7214396 20.7453534,36.8336688 C24.766426,34.6158399 28.7271221,32.2973837 32.7441695,30.0755298 C33.3157334,29.7615722 34.245531,29.4073636 34.6963419,29.67302 C40.1785249,32.6475672 45.6003315,35.7106665 51.5695513,39.0756482 L8.79081331,63.3469871 L8.79081331,15.0216645 Z"/>
    <path d="M4.55238546,7.95761809 C4.55238546,20.0852374 4.55238546,31.7459453 4.55238546,43.4026282 C4.55238546,49.4912592 4.55238546,55.5798903 4.55238546,61.6685214 C4.55238546,66.1283296 4.55238546,66.1283296 0,68 L0,0 L60.0786078,33.8108204 C56.6290991,36.8698946 56.2346395,36.9624719 52.6040014,34.9217474 C38.9911211,27.255278 25.3849493,19.5780751 11.785486,11.8901385 C9.51533089,10.6101575 7.20492483,9.39860305 4.55238546,7.95761809 Z"/>
  </g>
</svg>
