<svg xmlns="http://www.w3.org/2000/svg" viewBox="0 0 388.99 96"><defs><style>.cls-1{fill:#645a4e;}</style></defs><g id="图层_2" data-name="图层 2"><g id="图层_1-2" data-name="图层 1"><path class="cls-1" d="M12.39,21.21,42.24,38c-2.12,1.27-3.59,2.45-5.27,3.06a4.67,4.67,0,0,1-3.37-.44c-4.86-2.59-9.64-5.35-14.71-8.2V78.13L59.27,55.22c-3.89-2.15-7.2-4.11-10.65-5.78-.65-.32-1.94.34-2.78.81C39,54.06,32.28,57.93,25.45,61.82c-1.63-5.77-1-7.15,3.82-9.82,5.68-3.13,11.27-6.4,16.94-9.54.81-.45,2.12-.94,2.76-.6,7.73,4.2,15.39,8.55,23.82,13.28L12.39,89.43Z"/><path class="cls-1" d="M6.41,11.24v50q0,12.89,0,25.78c0,6.3,0,6.3-6.43,8.94V0L84.8,47.72c-4.87,4.32-5.43,4.45-10.55,1.57Q45.42,33.07,16.62,16.78C13.41,15,10.15,13.27,6.41,11.24Z"/><path class="cls-1" d="M108.68,44.22c0-11.45,7.36-18.16,16.14-18.16A14.18,14.18,0,0,1,135,30.52l-3.66,4.41A9,9,0,0,0,125,32c-5.26,0-9.2,4.51-9.2,12s3.57,12.1,9.06,12.1A9.66,9.66,0,0,0,132,52.67L135.66,57a14.07,14.07,0,0,1-11.08,5.11C115.81,62.1,108.68,55.81,108.68,44.22Z"/><path class="cls-1" d="M140.68,35.17h5.63l.47,4.64H147c1.92-3.42,4.73-5.3,7.46-5.3a7.53,7.53,0,0,1,3.09.56l-1.22,6a8.3,8.3,0,0,0-2.72-.42c-2.06,0-4.55,1.36-6.05,5.16V61.44h-6.85Z"/><path class="cls-1" d="M160.48,71.48l1.27-5.3a7.1,7.1,0,0,0,1.83.33c2.67,0,4.17-1.69,4.92-4L169,61l-10.23-25.8h6.95l4.17,12.2c.8,2.34,1.46,4.88,2.21,7.41h.23c.61-2.44,1.27-5,1.88-7.41l3.61-12.2h6.62l-9.34,27.07c-2.3,6.19-5.11,9.76-11,9.76A11,11,0,0,1,160.48,71.48Z"/><path class="cls-1" d="M188.73,35.17h5.63l.47,2.72H195c2.21-1.88,4.93-3.38,7.75-3.38,6.47,0,10.32,5.3,10.32,13.37,0,9-5.4,14.22-11.17,14.22a9.76,9.76,0,0,1-6.52-2.86l.19,4.31v8h-6.85ZM206,48c0-5-1.59-7.79-5.2-7.79-1.79,0-3.38.89-5.21,2.72V54.45a7.33,7.33,0,0,0,4.78,2C203.55,56.42,206,53.7,206,48Z"/><path class="cls-1" d="M218.62,52.25V40.61h-3.71V35.5l4-.33.8-7h5.77v7H232v5.44h-6.48V52.25c0,3,1.22,4.41,3.57,4.41a7.48,7.48,0,0,0,2.58-.57l1.13,5a17,17,0,0,1-5.54,1C221,62.1,218.62,58.16,218.62,52.25Z"/><path class="cls-1" d="M234.8,48.35c0-8.77,6.06-13.84,12.63-13.84s12.62,5.07,12.62,13.84S254,62.1,247.43,62.1,234.8,57,234.8,48.35Zm18.21,0c0-5-2-8.21-5.58-8.21s-5.59,3.24-5.59,8.21,2,8.12,5.59,8.12S253,53.28,253,48.35Z"/><path class="cls-1" d="M275.3,44.22c0-11.45,7.41-18.16,16.66-18.16a14.59,14.59,0,0,1,10.74,4.46L299,34.93a9.13,9.13,0,0,0-6.8-2.91c-5.77,0-9.81,4.51-9.81,12s3.48,12.1,10.28,12.1A7,7,0,0,0,297,54.78V47.93h-6.14V42.25h12.34V57.92A16.36,16.36,0,0,1,292,62.1C282.48,62.1,275.3,55.81,275.3,44.22Z"/><path class="cls-1" d="M308.47,48.35c0-8.54,6-13.84,12.25-13.84,7.23,0,11,5.3,11,12.57a12.73,12.73,0,0,1-.33,3.15H315.18c.57,4.32,3.38,6.57,7.28,6.57A10.88,10.88,0,0,0,328.37,55l2.34,4.22a16.59,16.59,0,0,1-9.19,2.91C314.2,62.1,308.47,57,308.47,48.35Zm17.32-2.67c0-3.57-1.6-5.82-5-5.82-2.76,0-5.2,2-5.72,5.82Z"/><path class="cls-1" d="M335.74,48.35c0-8.54,5.95-13.84,12.24-13.84,7.23,0,11,5.3,11,12.57a12.73,12.73,0,0,1-.33,3.15H342.44c.57,4.32,3.38,6.57,7.28,6.57A10.85,10.85,0,0,0,355.63,55L358,59.19a16.62,16.62,0,0,1-9.2,2.91C341.46,62.1,335.74,57,335.74,48.35Zm17.31-2.67c0-3.57-1.6-5.82-5-5.82-2.77,0-5.21,2-5.73,5.82Z"/><path class="cls-1" d="M364.64,24h6.71V46.52h.19l9.1-11.35h7.51L379,45.91,389,61.44h-7.46l-6.38-10.88-3.8,4.31v6.57h-6.71Z"/></g></g></svg>