<?xml version="1.0" encoding="utf-8"?>
<!-- Generator: Adobe Illustrator 26.0.0, SVG Export Plug-In . SVG Version: 6.00 Build 0)  -->
<svg version="1.1" id="图层_1" xmlns="http://www.w3.org/2000/svg" xmlns:xlink="http://www.w3.org/1999/xlink" x="0px" y="0px"
	 viewBox="0 0 250 250" style="enable-background:new 0 0 250 250;" xml:space="preserve">
<style type="text/css">
	.st0{fill:#C7B299;}
	.st1{fill:#FFFFFF;}
	.st2{fill:#9A7D60;}
	.st3{fill:url(#SVGID_1_);}
	.st4{fill:#C5B197;}
</style>
<g>
	<circle class="st0" cx="125" cy="125" r="75"/>
	<g>
		<path class="st1" d="M103.71,96.91c10.61,5.97,20.74,11.68,31.29,17.62c-2.22,1.34-3.76,2.57-5.52,3.21
			c-1,0.37-2.53,0.08-3.53-0.46c-5.1-2.72-10.11-5.61-15.43-8.6c0,16.1,0,31.77,0,47.9c14.08-7.99,27.88-15.81,42.35-24.01
			c-4.08-2.26-7.56-4.31-11.17-6.07c-0.68-0.33-2.03,0.36-2.92,0.85c-7.13,3.99-14.22,8.05-21.38,12.13
			c-1.71-6.05-1.05-7.5,4.01-10.3c5.95-3.28,11.81-6.72,17.76-10c0.85-0.47,2.22-0.99,2.89-0.63c8.12,4.4,16.14,8.96,24.98,13.92
			c-21.4,12.15-42.06,23.88-63.32,35.96C103.71,144.51,103.71,121.17,103.71,96.91z"/>
		<path class="st1" d="M97.44,86.45c0,17.95,0,35.21,0,52.47c0,9.01,0.01,18.03,0.01,27.04c0,6.6,0,6.6-6.74,9.37
			c0-33.43,0-66.73,0-100.66c29.83,16.79,59.31,33.38,88.91,50.04c-5.1,4.53-5.69,4.66-11.06,1.64
			c-20.15-11.34-40.28-22.73-60.43-34.08C104.78,90.38,101.36,88.58,97.44,86.45z"/>
	</g>
</g>
</svg>
