<?xml version="1.0" encoding="utf-8"?>
<!-- Generator: Adobe Illustrator 26.0.0, SVG Export Plug-In . SVG Version: 6.00 Build 0)  -->
<svg version="1.1" id="图层_1" xmlns="http://www.w3.org/2000/svg" xmlns:xlink="http://www.w3.org/1999/xlink" x="0px" y="0px"
	 viewBox="0 0 250 250" style="enable-background:new 0 0 250 250;" xml:space="preserve">
<style type="text/css">
	.st0{fill:#C7B299;}
	.st1{fill:#FFFFFF;}
	.st2{fill:#9A7D60;}
	.st3{fill:url(#SVGID_1_);}
	.st4{fill:#C5B197;}
</style>
<g>
	<path class="st4" d="M129.5,118.47c-6.69,3.7-13.28,7.56-19.98,11.25c-5.7,3.14-6.43,4.77-4.51,11.58
		c8.06-4.59,16.03-9.15,24.05-13.65c0.99-0.56,2.51-1.33,3.28-0.96c4.07,1.97,7.97,4.28,12.57,6.83
		c-16.27,9.22-31.79,18.03-47.63,27.01v-53.88c5.98,3.36,11.61,6.62,17.35,9.67c1.13,0.6,2.84,0.92,3.97,0.51
		c1.98-0.72,3.72-2.11,6.21-3.61c-11.87-6.68-23.27-13.1-35.19-19.82v80.45c23.91-13.58,47.15-26.77,71.22-40.44
		c-9.93-5.58-18.96-10.71-28.09-15.66C131.99,117.36,130.45,117.94,129.5,118.47z"/>
	<path class="st4" d="M94.6,88.19c22.66,12.77,45.29,25.58,67.96,38.33c6.04,3.4,6.7,3.24,12.44-1.85
		c-33.29-18.74-66.45-37.39-100-56.28V181.6c7.58-3.11,7.58-3.11,7.58-10.54c-0.01-10.14-0.01-20.27-0.02-30.41
		c0-19.41,0-38.82,0-59.01C86.97,84.04,90.82,86.06,94.6,88.19z"/>
</g>
</svg>
